# xmcd CD database file
#
# Track frame offsets:
#	150
#	17059
#	37434
#	57910
#	77831
#	99500
#	120093
#	140734
#	161554
#	182772
#	202570
#	220840
#	241045
#	261373
#	283397
#
# Disc length: 4014 seconds
#
# Revision: 0
# Processed by: cddbd v1.5.2PL0 Copyright (c) Steve Scherf et al.
# Submitted via: CDex 1.51
#
DISCID=d40fac0f
DTITLE=Compilation - Los Mejores de la Salsa 2009
DYEAR=2009
DGENRE=Salsa
TTITLE0=Adolescent's Orquesta - En Aquel Lugar
TTITLE1=Willy Chirino - Pa' Lante
TTITLE2=La Colombian Power - Labios Compartidos
TTITLE3=Tito Rojas - Digame Senora
TTITLE4=La Organizacion - Si No Te Hubieras Ido
TTITLE5=Jose Alberto El Canario - La Kalle
TTITLE6=La Colombian Power - Estos Celos
TTITLE7=La Organizacion - No Me Doy Por Vencido
TTITLE8=Ley Alejandro and Frankie Negron - Que Sera Que Sera
TTITLE9=Fruko - Te Traigo El Sabor
TTITLE10=La Organizacion - Te Quiero
TTITLE11=La Organizacion - Me Duele Hasta La Vida
TTITLE12=La Organizacion - Toco Por Venir
TTITLE13=Luis Miguel Del Amargue - Nunca Notaste
TTITLE14=Fruko and Oscar De Leon - Anhelos
EXTD=YEAR: 2009
EXTT0=
EXTT1=
EXTT2=
EXTT3=
EXTT4=
EXTT5=
EXTT6=
EXTT7=
EXTT8=
EXTT9=
EXTT10=
EXTT11=
EXTT12=
EXTT13=
EXTT14=
PLAYORDER=
